<?xml version="1.0" standalone="no"?>
<!DOCTYPE svg PUBLIC "-//W3C//DTD SVG 20010904//EN"
 "http://www.w3.org/TR/2001/REC-SVG-20010904/DTD/svg10.dtd">
<svg version="1.0" xmlns="http://www.w3.org/2000/svg"
 width="273.000000pt" height="273.000000pt" viewBox="0 0 273.000000 273.000000"
 preserveAspectRatio="xMidYMid meet">
<metadata>
Created by potrace 1.14, written by Peter Selinger 2001-2017
</metadata>
<g transform="translate(0.000000,273.000000) scale(0.100000,-0.100000)"
fill="#000000" stroke="none">
<path d="M750 2052 c-36 -16 -84 -39 -107 -53 l-43 -24 -156 -475 c-85 -261
-169 -515 -185 -564 -16 -49 -36 -98 -45 -108 -10 -10 -43 -23 -75 -30 l-59
-12 0 -38 0 -38 225 0 225 0 0 40 c0 37 -2 40 -27 40 -41 0 -99 18 -113 35 -9
11 -1 46 42 175 l53 160 202 0 c190 0 203 -1 213 -19 20 -39 100 -274 100
-296 0 -30 -19 -44 -71 -53 -42 -7 -44 -9 -47 -45 l-3 -37 255 0 256 0 0 39
c0 37 -2 39 -38 45 -71 11 -62 -6 -221 436 -54 153 -190 532 -293 823 -6 15
-13 27 -16 27 -4 0 -36 -13 -72 -28z m20 -535 c44 -125 80 -230 80 -232 0 -3
-72 -5 -160 -5 -88 0 -160 3 -160 7 0 8 125 399 141 440 5 14 11 24 14 21 2
-2 40 -106 85 -231z"/>
<path d="M2050 2040 c-142 -23 -271 -91 -381 -201 -86 -87 -136 -176 -170
-305 -30 -112 -31 -317 -1 -426 53 -194 171 -324 356 -391 105 -38 257 -48
356 -23 84 21 188 73 273 136 l67 50 0 159 c0 88 5 172 10 186 7 17 24 32 50
42 37 15 40 19 40 55 l0 38 -255 0 -255 0 0 -39 c0 -37 2 -39 37 -46 64 -12
113 -36 118 -59 3 -11 4 -93 3 -181 l-3 -160 -40 -14 c-61 -22 -189 -20 -254
4 -103 38 -188 139 -237 285 -16 45 -19 85 -19 225 0 150 3 179 23 245 33 102
75 182 119 225 62 61 87 70 188 70 78 0 97 -4 147 -28 51 -25 99 -68 138 -123
8 -12 31 -24 51 -28 37 -6 37 -6 83 65 49 77 65 131 47 153 -15 18 -95 52
-168 71 -71 19 -248 27 -323 15z"/>
</g>
</svg>
